<svg fill="none" xmlns="http://www.w3.org/2000/svg" viewBox="0 0 253 53">
  <g clip-path="url(#a)" fill="#fff">
    <path
      d="M0 26.5V11.889c0-3.152 1.244-6.175 3.458-8.404A11.778 11.778 0 0 1 11.808 0h29.045a11.743 11.743 0 0 1 7.591 2.782 11.878 11.878 0 0 1 4.028 7.048c.123.698.186 1.406.19 2.115.013 9.692.013 19.384 0 29.078a11.953 11.953 0 0 1-2.634 7.545 11.821 11.821 0 0 1-6.782 4.168c-.743.16-1.5.242-2.26.243H11.658c-2.707-.033-5.32-1-7.401-2.74A11.896 11.896 0 0 1 .22 43.42 12.62 12.62 0 0 1 0 41.037V26.5Zm17.87 6.05h13.568c1.206.017 2.407-.15 3.563-.497 2.877-.902 4.906-2.725 5.876-5.641a10.57 10.57 0 0 0 .309-5.592 8.573 8.573 0 0 0-1.71-3.82 8.5 8.5 0 0 0-3.308-2.544 10.84 10.84 0 0 0-4.38-.934H11.283v25.932h6.587V32.55Z" />
    <path
      d="M17.902 26.951v-7.806c.109 0 .2-.025.291-.025H30.29a7.726 7.726 0 0 1 1.93.219 3.05 3.05 0 0 1 1.623.873c.439.451.729 1.028.83 1.651.17.815.161 1.657-.024 2.468a3.021 3.021 0 0 1-.765 1.5 2.992 2.992 0 0 1-1.446.852c-.78.21-1.587.302-2.393.275H17.902v-.007ZM67.717 17.185a2.968 2.968 0 0 1 .841-2.133 2.932 2.932 0 0 1 2.106-.882 2.959 2.959 0 0 1 2.125.877 2.995 2.995 0 0 1 .87 2.138v1.632c1.917-2.722 4.62-4.894 8.845-4.894 6.09 0 12.032 4.845 12.032 13.543v.099c0 8.649-5.893 13.542-12.032 13.542-4.324 0-7.026-2.175-8.844-4.583v9.245c0 .794-.314 1.557-.873 2.119a2.97 2.97 0 0 1-4.212 0 3.006 3.006 0 0 1-.872-2.12l.014-28.583Zm20.779 10.38v-.099c0-5.042-3.389-8.353-7.418-8.353-4.03 0-7.565 3.36-7.565 8.353v.099c0 4.992 3.535 8.352 7.565 8.352s7.418-3.212 7.418-8.352ZM96.36 33.051v-.099c0-5.64 4.372-8.402 10.711-8.402a21.546 21.546 0 0 1 6.973 1.086v-.641c0-3.71-2.257-5.684-6.433-5.684a15.338 15.338 0 0 0-5.747 1.037 3.333 3.333 0 0 1-.935.148 2.46 2.46 0 0 1-1.763-.71 2.491 2.491 0 0 1-.743-1.758c.01-.512.17-1.01.458-1.432.288-.421.693-.749 1.165-.941a22.134 22.134 0 0 1 8.349-1.53c3.883 0 6.781 1.036 8.599 2.915 1.913 1.876 2.803 4.647 2.803 8.057v12.852a2.86 2.86 0 0 1-.846 2.05 2.828 2.828 0 0 1-2.051.816c-1.721 0-2.902-1.185-2.902-2.521v-.987c-1.752 2.115-4.467 3.804-8.448 3.804-4.863 0-9.187-2.82-9.187-8.056l-.004-.004Zm17.789-1.876v-1.762a16.344 16.344 0 0 0-5.897-1.058c-3.83 0-6.09 1.632-6.09 4.35v.085c0 2.521 2.211 3.956 5.06 3.956 3.928 0 6.927-2.274 6.927-5.588M124.254 47.88a2.531 2.531 0 0 1-1.349-.915 2.556 2.556 0 0 1-.518-1.552 2.409 2.409 0 0 1 1.472-2.284c.296-.124.614-.187.935-.184.37-.002.737.065 1.083.197a6.674 6.674 0 0 0 2.064.353c1.752 0 2.701-.74 3.682-2.768l.196-.543-9.628-21.666a4.05 4.05 0 0 1-.351-1.432 2.888 2.888 0 0 1 .853-2.093 2.858 2.858 0 0 1 2.094-.823c1.524 0 2.358.889 2.901 2.275l6.973 17.347 6.486-17.347c.491-1.238 1.325-2.275 2.849-2.275a2.783 2.783 0 0 1 2.011.81 2.814 2.814 0 0 1 .837 2.011 5.354 5.354 0 0 1-.245 1.431l-9.482 22.887c-2.211 5.338-4.555 7.316-8.742 7.316a10.458 10.458 0 0 1-4.128-.74M174.012 39.528a1.16 1.16 0 0 1-.71 1.149c-.148.06-.307.09-.467.085a1.183 1.183 0 0 1-1.147-.755 1.19 1.19 0 0 1-.083-.479v-4.584c-2.159 3.311-5.354 6.227-10.316 6.227-6.041 0-12.18-4.894-12.18-13.098v-.113c0-8.205 6.139-13.197 12.18-13.197 5.011 0 8.255 2.866 10.316 6.029V5.518a1.159 1.159 0 0 1 .712-1.149c.149-.06.308-.09.469-.085a1.18 1.18 0 0 1 1.145.755c.059.152.087.315.081.479v34.01ZM151.72 27.854v.099c0 6.625 4.555 10.873 9.811 10.873s10.217-4.396 10.217-10.824v-.099c0-6.476-5.01-10.824-10.217-10.824-5.452 0-9.811 4.002-9.811 10.775ZM191.112 41.157c-6.584 0-12.264-5.289-12.264-13.148v-.099c0-7.316 5.108-13.147 11.885-13.147 7.026 0 11.497 5.831 11.497 13.045a1.242 1.242 0 0 1-.375.797 1.22 1.22 0 0 1-.806.342h-19.664c.441 6.276 4.905 9.936 9.811 9.936 3.584 0 6.09-1.485 8.104-3.463a1.057 1.057 0 0 1 .785-.352c.306-.007.602.109.824.322.221.213.35.505.357.813a1.193 1.193 0 0 1-.396.843c-2.453 2.468-5.256 4.1-9.773 4.1l.015.01Zm8.483-14.392c-.351-5.092-3.242-9.788-8.992-9.788-4.961 0-8.791 4.2-9.232 9.788h18.224ZM204.91 28.058v-.098c0-7.052 5.606-13.197 12.772-13.197 4.324 0 7.173 1.879 9.433 4.005a1.311 1.311 0 0 1 .26 1.362 1.226 1.226 0 0 1-.665.67c-.15.061-.31.092-.471.09a1.232 1.232 0 0 1-.834-.296c-2.015-1.928-4.373-3.557-7.761-3.557-5.701 0-10.12 4.795-10.12 10.824v.099c0 6.078 4.555 10.93 10.316 10.93 3.241 0 5.844-1.58 7.859-3.607a1.107 1.107 0 0 1 .785-.395c.306.02.593.152.81.37.216.218.347.507.367.815a1.08 1.08 0 0 1-.294.744c-2.505 2.57-5.403 4.347-9.678 4.347-7.218 0-12.772-6.03-12.772-13.098M241.899 41.157c-6.584 0-12.282-5.289-12.282-13.148v-.099c0-7.316 5.109-13.147 11.886-13.147 7.008 0 11.496 5.831 11.496 13.045a1.234 1.234 0 0 1-.372.796c-.217.21-.504.333-.805.343h-19.65c.441 6.276 4.905 9.936 9.811 9.936 3.584 0 6.09-1.485 8.104-3.463a1.057 1.057 0 0 1 .785-.352 1.144 1.144 0 0 1 .825.32 1.155 1.155 0 0 1 .356.815 1.19 1.19 0 0 1-.392.843c-2.453 2.468-5.256 4.1-9.776 4.1l.014.01Zm8.483-14.392c-.351-5.092-3.242-9.788-8.988-9.788-4.962 0-8.795 4.2-9.236 9.788h18.224Z" />
  </g>
  <defs>
    <clipPath id="a">
      <path fill="#fff" d="M0 0h253v53H0z" />
    </clipPath>
  </defs>
</svg>