<svg xmlns="http://www.w3.org/2000/svg" xml:space="preserve" viewBox="0 0 97.7 97.7">
	<circle cx="50" cy="50" r="40" fill="#4464ff" stroke="#5accec" stroke-width="2" />
	<path
		d="m28.9 66.6-.2-.2-.5 3.9c-.1.6-.4 1.2-.9 1.5-1 .8-2.4.6-3.2-.4-.4-.5-.6-1.1-.5-1.7l1.2-10v-.2c.3-1.2 1.5-2 2.7-1.7 3.3.8 6.7 1.5 10 2.3.6.1 1.1.5 1.4 1 .3.5.4 1.1.3 1.7-.1.6-.5 1.1-1 1.4-.5.3-1.1.4-1.7.3-1.5-.3-3-.7-4.4-1 .4.5.8.9 1.3 1.3 3.2 3.1 7.3 5.2 11.7 6 2.2.4 4.4.4 6.6.2 2.2-.3 4.3-.9 6.3-1.8.8-.4 1.5-.7 2.2-1.1.7-.4 1.4-.9 2-1.3 1.4-1 2.7-2.2 3.8-3.5 1.1-1.3 2.1-2.7 2.9-4.2l.3-.5 4.5 1.2-.4.7c-.9 2-2.1 3.8-3.5 5.5-1.4 1.7-3 3.2-4.8 4.5-.8.5-1.5 1.1-2.4 1.6-.8.5-1.7.9-2.6 1.3-2.4 1.1-5 1.9-7.6 2.2-2.6.3-5.3.3-8-.2-5.3-.9-10.2-3.5-14.1-7.3-.5-.4-.9-1-1.4-1.5zm39.9-35.5.2.2.4-3.9c.1-1.3 1.3-2.2 2.5-2 1.3.1 2.2 1.3 2 2.5v.1l-1.2 10v.2c-.3 1.2-1.5 2-2.7 1.7-3.3-.8-6.7-1.5-10-2.3-.6-.1-1.1-.5-1.4-1-.3-.5-.4-1.1-.3-1.7.1-.6.5-1.1 1-1.4.5-.3 1.1-.4 1.7-.3 1.5.3 3 .7 4.4 1-.4-.4-.8-.9-1.3-1.4-1.6-1.6-3.4-2.9-5.4-3.9-2-1-4.1-1.7-6.3-2.1-2.2-.4-4.4-.4-6.6-.2-2.2.3-4.3.9-6.3 1.8-.8.4-1.5.7-2.2 1.1-.7.4-1.4.9-2 1.3-.7.5-2.2 1.6-3.8 3.5-1.4 1.6-2.4 3.3-3.1 4.7L24 38c.8-1.8 2-4 3.9-6.2.3-.4 2.1-2.6 4.8-4.5.8-.6 1.5-1.1 2.4-1.6.8-.5 1.7-.9 2.6-1.3 2.4-1.1 5-1.9 7.6-2.2 2.6-.3 5.3-.3 8 .2 2.6.5 5.2 1.3 7.6 2.6 2.4 1.2 4.6 2.8 6.5 4.7.5.4 1 .9 1.4 1.4zM43.1 47.6c0 2.7-2.1 4.4-5.3 4.4h-1.7v2.9h-3.9V43.2h5.6c3.3 0 5.3 1.7 5.3 4.4zm-3.9 0c0-.8-.5-1.4-1.6-1.4h-1.4v2.7h1.4c1.1 0 1.6-.5 1.6-1.3zm14.2 4.2v3H44v-2.4l4.2-3.9c.8-.7.9-1.2.9-1.6 0-.6-.4-.9-1.1-.9-.7 0-1.4.4-1.7 1.1l-3-1.5c.8-1.6 2.5-2.7 5-2.7 2.8 0 4.7 1.4 4.7 3.6 0 1.1-.3 2.2-2 3.7l-1.7 1.5h4.1zm12.1-4.2c0 2.7-2.1 4.4-5.3 4.4h-1.7v2.9h-3.9V43.2h5.6c3.3 0 5.3 1.7 5.3 4.4zm-3.9 0c0-.8-.5-1.4-1.6-1.4h-1.4v2.7H60c1.1 0 1.6-.5 1.6-1.3z"
		fill="#fff" />
</svg>