<svg viewBox="0 0 97.713 97.713">
	<circle cx="50" cy="50" r="40" stroke="#5accec" stroke-width="2" fill="#4464ff" />
	<g>
		<path fill="#ffffff" d="M34.1,49.5c0-2.7,0-5.3,0-8c0-2.7,1.6-5.3,4.2-6.3c1-0.4,2.1-0.5,3.1-0.4c5.1,0.5,10.2,0.3,15.3,0
		c1.6-0.1,3.3,0.4,4.5,1.4c1.3,1,2.2,2.4,2.4,4c0.1,0.4,0.1,0.8,0.1,1.2c0,5.4,0,10.7,0,16.1c0,1.6-0.6,3.1-1.6,4.3
		c-1.1,1.2-2.5,2-4.1,2.2c-0.3,0-0.6,0.1-1,0.1c-5.4,0-10.9,0-16.3,0c-3.1,0-5.8-2-6.5-5c-0.1-0.5-0.2-1.1-0.2-1.7
		C34.1,54.8,34.1,52.2,34.1,49.5z M44.2,52.8h7.7c0.7,0,1.4-0.1,2-0.3c1.6-0.5,2.8-1.5,3.3-3.1c0.3-1,0.4-2.1,0.2-3.1
		c-0.1-0.8-0.5-1.5-1-2.1c-0.5-0.6-1.1-1.1-1.9-1.4c-0.8-0.3-1.6-0.5-2.5-0.5c-0.5,0-0.9,0-1.4,0H40.5v14.4h3.7V52.8z" />
		<path fill="#ffffff" d="M44.2,49.7v-4.3c0.1,0,0.1,0,0.2,0h6.8c0.4,0,0.7,0,1.1,0.1c0.3,0.1,0.7,0.2,0.9,0.5c0.2,0.3,0.4,0.6,0.5,0.9
		c0.1,0.5,0.1,0.9,0,1.4c-0.1,0.3-0.2,0.6-0.4,0.8c-0.2,0.2-0.5,0.4-0.8,0.5c-0.4,0.1-0.9,0.2-1.4,0.2c-1,0-2,0-3,0L44.2,49.7
		L44.2,49.7z" />
	</g>
</svg>